<?xml version="1.0" standalone="no"?>
<!DOCTYPE svg PUBLIC "-//W3C//DTD SVG 20010904//EN"
 "http://www.w3.org/TR/2001/REC-SVG-20010904/DTD/svg10.dtd">
<svg version="1.0" xmlns="http://www.w3.org/2000/svg"
 width="250.000000pt" height="405.000000pt" viewBox="0 0 250.000000 405.000000"
 preserveAspectRatio="xMidYMid meet">
<metadata>
Created by potrace 1.15, written by Peter Selinger 2001-2017
</metadata>
<g transform="translate(0.000000,405.000000) scale(0.100000,-0.100000)"
fill="#000000" stroke="none">
<path d="M1359 3245 c-1 -3 -3 -9 -4 -15 -1 -5 -3 -17 -4 -25 0 -8 -5 -15 -10
-15 -5 0 -8 11 -5 25 2 14 1 25 -4 25 -15 0 -53 -46 -45 -54 5 -4 3 -6 -3 -4
-6 2 -23 -12 -38 -29 -29 -34 -52 -44 -42 -18 7 18 -10 20 -17 3 -4 -10 -8
-10 -15 1 -8 11 -12 10 -21 -5 -15 -27 -13 -9 3 31 8 19 11 35 7 35 -5 0 -16
-17 -24 -37 -21 -51 -92 -126 -73 -77 11 28 -11 5 -24 -26 -15 -36 -34 -41
-20 -5 6 16 6 25 0 25 -6 0 -10 -4 -10 -9 0 -4 -13 -24 -28 -44 -21 -26 -32
-33 -43 -26 -8 5 -18 9 -24 9 -5 0 -3 -4 5 -10 24 -15 1 -65 -30 -65 -19 0
-26 7 -31 30 l-7 30 -1 -27 c-1 -21 -6 -28 -21 -28 -25 0 -25 -7 -3 -34 10
-12 11 -15 3 -8 -23 20 -25 15 -28 -52 -2 -56 1 -68 20 -85 17 -16 18 -21 6
-21 -9 0 -21 -7 -28 -15 -10 -12 -9 -15 7 -15 16 0 19 -6 16 -27 -2 -16 0 -93
4 -173 5 -80 5 -146 1 -148 -4 -2 2 -18 13 -35 10 -18 19 -42 19 -54 0 -13 5
-23 10 -23 6 0 10 1 10 3 0 1 4 38 9 82 8 68 17 93 55 160 25 44 46 92 46 107
0 33 29 66 41 47 6 -10 11 -5 18 14 6 16 11 34 11 40 1 44 83 90 160 91 94 0
277 -22 308 -38 17 -9 43 -16 58 -16 34 0 96 -41 114 -75 12 -22 44 -42 61
-38 6 2 49 -117 49 -135 0 -6 14 -33 30 -59 23 -37 31 -61 31 -99 0 -70 9
-125 20 -118 5 3 9 14 9 24 0 10 7 26 16 34 19 20 22 35 39 181 8 66 19 140
24 165 11 51 4 123 -12 113 -6 -3 -7 -1 -3 5 4 7 4 18 -1 25 -14 22 -15 59 -1
54 7 -2 12 -9 11 -14 -1 -5 5 -10 13 -10 10 0 7 8 -11 27 -33 35 -32 40 10 36
47 -3 46 17 -2 40 -30 14 -34 19 -19 22 10 2 15 7 10 11 -5 3 -16 20 -24 36
-11 22 -25 32 -50 36 l-35 6 30 3 c22 2 15 5 -25 11 -87 15 -120 29 -130 55
-5 13 -15 23 -22 22 -7 -2 -12 6 -12 17 0 25 -23 40 -40 26 -6 -5 -31 -9 -54
-8 -30 1 -38 4 -26 10 9 5 29 7 45 3 22 -4 27 -2 22 10 -3 8 -15 14 -27 13
-11 0 -48 -1 -81 0 -44 1 -56 4 -45 11 11 8 8 9 -13 4 -16 -4 -33 -1 -42 6 -8
7 -30 12 -49 13 -32 1 -35 3 -30 24 4 13 3 23 0 23 -3 0 -7 -2 -7 -5z"/>
<path d="M1093 2480 c-45 -5 -59 -12 -98 -50 -60 -59 -57 -79 8 -45 35 18 167
29 187 15 8 -5 11 -10 5 -10 -49 -1 -135 -24 -166 -45 -21 -14 -46 -25 -55
-25 -14 0 -13 -4 6 -20 24 -21 65 -27 75 -11 3 6 22 8 43 6 20 -2 46 -4 57 -5
17 -1 17 -3 -5 -11 -14 -6 -42 -8 -62 -5 -23 4 -38 2 -38 -4 0 -5 10 -10 23
-10 18 0 19 -2 7 -11 -15 -9 25 -7 117 7 41 6 50 -9 15 -26 l-27 -13 29 -8
c17 -5 37 -4 48 2 37 20 30 0 -17 -46 -36 -35 -45 -48 -36 -59 6 -7 7 -16 3
-20 -4 -4 -8 -11 -8 -14 -7 -34 -19 -52 -30 -48 -8 3 -14 2 -14 -2 0 -4 -10
-9 -22 -9 -13 -1 -18 1 -13 5 14 10 37 53 32 58 -6 6 -82 -69 -103 -101 -14
-21 -15 -28 -4 -38 10 -9 11 -9 6 1 -4 6 -2 12 3 12 6 0 11 -5 11 -11 0 -6 5
-9 12 -7 7 3 12 16 13 30 0 33 13 47 26 28 8 -11 12 -12 16 -2 5 13 54 17 52
5 -6 -35 15 -46 24 -13 6 25 42 26 57 3 8 -14 10 -14 9 -3 -3 32 2 35 41 32
49 -5 51 8 10 50 -24 24 -36 29 -56 24 -21 -6 -25 -4 -22 11 2 10 6 17 10 16
11 -3 80 60 88 82 4 12 2 24 -6 33 -10 9 -12 29 -8 66 5 47 3 56 -17 75 -12
11 -27 21 -31 21 -5 0 -8 6 -6 13 5 28 -13 67 -35 71 -45 9 -103 12 -154 6z"/>
<path d="M1523 2465 c-35 -16 -56 -46 -51 -73 2 -9 -7 -26 -20 -37 -16 -14
-21 -26 -16 -38 5 -14 9 -15 22 -5 12 10 16 10 19 1 3 -7 11 -13 19 -13 8 0
13 -9 11 -22 -3 -28 28 -36 128 -35 46 0 55 2 26 4 -44 4 -102 32 -71 34 45 3
131 0 148 -5 38 -12 32 12 -10 43 -44 32 -99 52 -149 53 -44 1 -34 15 16 22
54 9 129 -1 169 -21 26 -14 28 -14 22 2 -3 9 -6 18 -6 20 0 13 -93 63 -126 68
-21 3 -52 8 -69 11 -16 3 -44 -1 -62 -9z"/>
<path d="M1103 1927 c-13 -5 -23 -13 -23 -17 0 -3 18 -19 40 -36 22 -16 40
-34 40 -39 0 -6 10 -19 23 -29 12 -10 33 -29 47 -41 14 -13 36 -26 50 -30 18
-5 21 -4 10 4 -12 8 -9 12 13 20 16 6 40 11 53 11 14 0 22 4 19 10 -9 15 1 12
18 -5 24 -23 141 24 207 85 l52 47 -86 2 c-47 0 -95 -3 -108 -9 -21 -8 -20 -9
10 -9 17 -1 32 -6 32 -12 0 -5 4 -8 9 -5 8 6 21 -15 21 -34 0 -12 -59 -30 -65
-20 -3 4 -22 4 -43 -2 -20 -6 -59 -8 -87 -4 -115 13 -125 17 -125 42 0 8 5 12
10 9 6 -3 10 1 10 9 0 13 16 15 103 11 56 -2 89 -1 73 1 -23 5 -26 8 -15 16
11 7 9 9 -8 5 -13 -3 -26 -1 -29 4 -3 5 -51 9 -108 9 -56 0 -106 4 -111 9 -6
5 -19 4 -32 -2z"/>
<path d="M1030 1633 c0 -5 9 -19 20 -33 11 -14 20 -30 20 -36 0 -6 12 -32 26
-58 14 -25 23 -46 19 -46 -3 0 0 -7 9 -15 8 -8 23 -26 33 -39 12 -14 37 -27
66 -34 26 -5 45 -6 42 -2 -3 4 6 15 18 23 17 11 28 12 41 5 14 -8 17 -7 12 1
-5 7 2 11 18 11 14 0 26 5 26 11 0 5 5 7 11 3 6 -3 14 -2 18 4 4 6 26 19 50
29 l43 19 -69 0 c-172 1 -250 28 -281 97 -6 15 -17 25 -23 22 -15 -10 -69 15
-69 31 0 8 -7 14 -15 14 -8 0 -15 -3 -15 -7z"/>
<path d="M780 1243 c-25 -9 -65 -30 -90 -48 -25 -18 -61 -35 -80 -39 -19 -3
-48 -12 -65 -20 -16 -8 -59 -22 -95 -31 -122 -32 -187 -56 -231 -83 -24 -16
-83 -47 -131 -70 l-88 -43 0 -454 0 -455 1250 0 1250 0 0 479 0 478 -37 26
c-44 30 -131 65 -256 103 -48 15 -115 44 -148 65 -33 22 -68 39 -79 39 -11 0
-27 11 -36 25 -16 25 -47 32 -72 17 -9 -6 -6 -12 13 -20 l26 -12 -22 -42 c-84
-166 -191 -258 -350 -304 -72 -21 -87 -22 -231 -14 -94 5 -170 14 -196 24
-125 45 -203 117 -261 239 -45 96 -47 119 -14 139 24 15 25 17 8 17 -11 0 -40
-8 -65 -16z"/>
</g>
</svg>
